<svg height="438pt" viewBox="-43 0 438 438.00018" width="438pt" xmlns="http://www.w3.org/2000/svg"><path d="m268.140625 176.050781c0 50.835938-41.210937 92.050781-92.050781 92.050781-50.835938 0-92.046875-41.214843-92.046875-92.050781 0-50.839843 41.210937-92.050781 92.046875-92.050781 50.839844 0 92.050781 41.210938 92.050781 92.050781zm0 0" fill="#00acea"/><path d="m295.53125 60.71875c42.421875 44.382812 59.640625 111.300781 36.128906 173.472656-5.238281 14.667969-13.617187 27.238282-23.570312 38.757813l-132 155.050781-132-155.050781c-9.949219-11.519531-18.328125-24.621094-23.566406-38.757813-39.8125-105.292968 37.1875-224.191406 155.566406-224.191406 48.480468 0 90.023437 19.941406 119.441406 50.71875zm-27.390625 115.332031c0-50.839843-41.210937-92.050781-92.050781-92.050781-50.835938 0-92.046875 41.210938-92.046875 92.050781 0 50.835938 41.210937 92.050781 92.046875 92.050781 50.839844 0 92.054687-41.214843 92.050781-92.050781zm0 0" fill="#00efd1"/><g fill="#083863"><path d="m348.082031 138.617188c-7.078125-31.878907-22.753906-61.207032-45.320312-84.808594-33.171875-34.699219-78.152344-53.808594-126.671875-53.808594-58.582032 0-111.242188 27.582031-144.476563 75.675781-33.070312 47.863281-40.714843 108.441407-20.46875 161.988281 5.355469 14.457032 13.898438 28.527344 25.332031 41.769532l132 155.050781c1.898438 2.230469 4.683594 3.515625 7.613282 3.515625 2.929687 0 5.714844-1.285156 7.613281-3.515625l131.988281-155.035156c11.9375-13.828125 20.234375-27.507813 25.359375-41.808594 11.949219-31.617187 14.394531-66.035156 7.03125-99.023437zm-25.773437 92.035156c-.019532.058594-.042969.117187-.0625.171875-4.339844 12.148437-11.242188 23.453125-21.722656 35.589843l-.046876.054688-124.386718 146.105469-124.429688-146.160157c-9.917968-11.480468-17.238281-23.492187-21.785156-35.761718-17.945312-47.464844-11.144531-101.152344 18.191406-143.605469 29.445313-42.609375 76.105469-67.046875 128.023438-67.046875 43 0 82.855468 16.914062 112.214844 47.628906 20.042968 20.960938 33.964843 47.011719 40.253906 75.320313 6.519531 29.21875 4.347656 59.707031-6.25 87.703125zm0 0"/><path d="m176.089844 74c-56.359375 0-102.046875 45.6875-102.046875 102.050781 0 56.359375 45.6875 102.050781 102.046875 102.050781 56.363281 0 102.050781-45.691406 102.050781-102.050781-.0625-56.335937-45.714844-101.988281-102.050781-102.050781zm0 184.101562c-45.3125 0-82.046875-36.738281-82.046875-82.050781 0-45.316406 36.734375-82.050781 82.046875-82.050781 45.316406 0 82.050781 36.734375 82.050781 82.050781-.050781 45.292969-36.753906 81.996094-82.050781 82.050781zm0 0"/></g></svg>