<svg id="Capa_1" enable-background="new 0 0 510 510" height="512" viewBox="0 0 510 510" width="512" xmlns="http://www.w3.org/2000/svg"><path d="m510 112.607v218.67c0 8.28-6.72 15-15 15h-418c-8.28 0-15-6.72-15-15v-218.67c0-8.28 6.72-15 15-15h418c8.28 0 15 6.719 15 15z" fill="#d7ebed"/><path d="m510 112.607v218.67c0 8.28-6.72 15-15 15h-209v-248.67h209c8.28 0 15 6.719 15 15z" fill="#b6dade"/><path d="m92 127.607h388v188.67h-388z" fill="#007a9f"/><path d="m286 127.607h194v188.67h-194z" fill="#00607f"/><path d="m448 178.723v218.67c0 8.28-6.72 15-15 15h-418c-8.28 0-15-6.72-15-15v-218.67c0-8.28 6.72-15 15-15h418c8.28 0 15 6.72 15 15z" fill="#c5ef87"/><path d="m448 178.723v218.67c0 8.28-6.72 15-15 15h-209v-248.67h209c8.28 0 15 6.72 15 15z" fill="#53e361"/><path d="m30 193.723h388v188.67h-388z" fill="#00da26"/><path d="m224 193.723h194v188.67h-194z" fill="#00a03c"/><path d="m282.88 288.063c0 32.46-26.41 58.88-58.88 58.88s-58.88-26.42-58.88-58.88c0-32.47 26.41-58.89 58.88-58.89s58.88 26.42 58.88 58.89z" fill="#c5ef87"/><path d="m282.88 288.063c0 32.46-26.41 58.88-58.88 58.88v-117.77c32.47 0 58.88 26.42 58.88 58.89z" fill="#53e361"/><path d="m252.88 288.063c0 15.92-12.95 28.88-28.88 28.88s-28.88-12.96-28.88-28.88c0-15.93 12.95-28.89 28.88-28.89s28.88 12.96 28.88 28.89z" fill="#00da26"/><path d="m252.88 288.063c0 15.92-12.95 28.88-28.88 28.88v-57.77c15.93 0 28.88 12.96 28.88 28.89z" fill="#00a03c"/><path d="m362.463 262.899c-8.284 0-15 6.716-15 15v20.319c0 8.284 6.716 15 15 15s15-6.716 15-15v-20.319c0-8.284-6.716-15-15-15z" fill="#53e361"/><path d="m85.537 262.899c-8.284 0-15 6.716-15 15v20.319c0 8.284 6.716 15 15 15s15-6.716 15-15v-20.319c0-8.284-6.716-15-15-15z" fill="#c5ef87"/></svg>